<svg width="64" height="64" viewBox="0 0 64 64" fill="none" xmlns="http://www.w3.org/2000/svg">
<path d="M51.2035 25.716C51.2035 24.8831 50.8663 24.0843 50.2661 23.4953C49.6658 22.9063 48.8518 22.5754 48.0029 22.5754H10.9082L18.2695 15.3833C18.8722 14.7919 19.2108 13.9898 19.2108 13.1535C19.2108 12.3171 18.8722 11.515 18.2695 10.9236C17.6668 10.3322 16.8494 10 15.9971 10C15.1448 10 14.3274 10.3322 13.7247 10.9236L0.922364 23.4862C0.478259 23.9278 0.177416 24.4887 0.0577972 25.0979C-0.0618217 25.7072 0.005143 26.3375 0.250242 26.9095C0.49035 27.483 0.898097 27.974 1.4221 28.3205C1.9461 28.667 2.5629 28.8536 3.19478 28.8567H48.0029C48.8518 28.8567 49.6658 28.5258 50.2661 27.9368C50.8663 27.3478 51.2035 26.549 51.2035 25.716ZM63.7498 37.0852C63.5097 36.5116 63.1019 36.0206 62.5779 35.6741C62.0539 35.3276 61.4371 35.1411 60.8052 35.138H15.9971C15.1483 35.138 14.3342 35.4688 13.7339 36.0578C13.1337 36.6468 12.7965 37.4456 12.7965 38.2786C12.7965 39.1115 13.1337 39.9104 13.7339 40.4994C14.3342 41.0883 15.1483 41.4192 15.9971 41.4192H53.0918L45.7305 48.6113C45.4305 48.9033 45.1924 49.2506 45.0299 49.6333C44.8674 50.016 44.7838 50.4265 44.7838 50.8412C44.7838 51.2558 44.8674 51.6663 45.0299 52.049C45.1924 52.4317 45.4305 52.779 45.7305 53.071C46.028 53.3654 46.382 53.599 46.772 53.7585C47.1621 53.9179 47.5804 54 48.0029 54C48.4254 54 48.8438 53.9179 49.2338 53.7585C49.6238 53.599 49.9778 53.3654 50.2753 53.071L63.0776 40.5085C63.5217 40.0668 63.8226 39.506 63.9422 38.8967C64.0618 38.2875 63.9949 37.6571 63.7498 37.0852Z" fill="#262626"/>
</svg>
